HIERARCHY
ROOT Hips
{
	OFFSET 0.000000 0.000000 0.053700
	CHANNELS 6 Xposition Yposition Zposition Xrotation Yrotation Zrotation
	JOINT Spine
	{
		OFFSET 0.000000 -0.000000 0.071600
		CHANNELS 6 Xposition Yposition Zposition Xrotation Yrotation Zrotation
		JOINT Spine1
		{
			OFFSET 0.000000 -0.000000 0.081800
			CHANNELS 3 Xrotation Yrotation Zrotation
			JOINT Spine2
			{
				OFFSET 0.000000 -0.000000 0.081800
				CHANNELS 3 Xrotation Yrotation Zrotation
				JOINT Neck
				{
					OFFSET 0.000000 -0.000000 0.071600
					CHANNELS 6 Xposition Yposition Zposition Xrotation Yrotation Zrotation
					JOINT Head
					{
						OFFSET 0.000000 -0.000000 0.051100
						CHANNELS 3 Xrotation Yrotation Zrotation
						End Site
						{
							OFFSET 0.000000 -0.000000 0.051100
						}
					}
				}
				JOINT LeftShoulder
				{
					OFFSET 0.024900 -0.000000 0.061300
					CHANNELS 6 Xposition Yposition Zposition Xrotation Yrotation Zrotation
					JOINT LeftArm
					{
						OFFSET 0.049900 -0.000000 0.000000
						CHANNELS 3 Xrotation Yrotation Zrotation
						JOINT LeftForeArm
						{
							OFFSET 0.099700 -0.000000 0.000000
							CHANNELS 3 Xrotation Yrotation Zrotation
							JOINT LeftHand
							{
								OFFSET 0.099700 -0.000000 0.000000
								CHANNELS 3 Xrotation Yrotation Zrotation
								End Site
								{
									OFFSET 0.099700 -0.000000 0.000000
								}
							}
						}
					}
				}
				JOINT RightShoulder
				{
					OFFSET -0.024900 -0.000000 0.061300
					CHANNELS 6 Xposition Yposition Zposition Xrotation Yrotation Zrotation
					JOINT RightArm
					{
						OFFSET -0.049900 -0.000000 0.000000
						CHANNELS 3 Xrotation Yrotation Zrotation
						JOINT RightForeArm
						{
							OFFSET -0.099700 -0.000000 0.000000
							CHANNELS 3 Xrotation Yrotation Zrotation
							JOINT RightHand
							{
								OFFSET -0.099700 -0.000000 0.000000
								CHANNELS 3 Xrotation Yrotation Zrotation
								End Site
								{
									OFFSET -0.099700 -0.000000 0.000000
								}
							}
						}
					}
				}
			}
		}
	}
	JOINT LeftUpLeg
	{
		OFFSET 0.049900 0.000000 0.000000
		CHANNELS 6 Xposition Yposition Zposition Xrotation Yrotation Zrotation
		JOINT LeftLeg
		{
			OFFSET 0.000000 0.000000 -0.255600
			CHANNELS 3 Xrotation Yrotation Zrotation
			JOINT LeftFoot
			{
				OFFSET 0.000000 0.000000 -0.255600
				CHANNELS 3 Xrotation Yrotation Zrotation
				JOINT LeftToeBase
				{
					OFFSET 0.000000 0.019731 -0.051125
					CHANNELS 3 Xrotation Yrotation Zrotation
					End Site
					{
						OFFSET 0.000000 0.054800 0.000000
					}
				}
			}
		}
	}
	JOINT RightUpLeg
	{
		OFFSET -0.049900 0.000000 0.000000
		CHANNELS 6 Xposition Yposition Zposition Xrotation Yrotation Zrotation
		JOINT RightLeg
		{
			OFFSET 0.000000 0.000000 -0.255600
			CHANNELS 3 Xrotation Yrotation Zrotation
			JOINT RightFoot
			{
				OFFSET 0.000000 0.000000 -0.255600
				CHANNELS 3 Xrotation Yrotation Zrotation
				JOINT RightToeBase
				{
					OFFSET 0.000000 0.019731 -0.051125
					CHANNELS 3 Xrotation Yrotation Zrotation
					End Site
					{
						OFFSET 0.000000 0.054800 0.000000
					}
				}
			}
		}
	}
}
MOTION
Frames: 10
Frame Time: 0.033333
-0.001652 0.000432 0.552890 0.950309 1.454850 2.672234 -0.000000 -0.000000 0.071600 0.194840 -0.183612 0.372154 0.390986 -0.496886 0.692440 0.390986 -0.496886 0.692441 -0.000000 -0.000000 0.071600 0.005308 1.208051 -0.456093 0.000000 0.000000 0.000000 0.024900 -0.000000 0.061300 4.928163 16.150496 -15.401622 -13.912703 50.208215 10.142841 20.841040 4.308266 -32.040322 0.000000 0.000002 0.000003 -0.024900 0.000000 0.061300 3.784844 -17.599451 7.784639 -24.582479 -50.695163 -31.311745 16.255797 -9.770632 25.212537 0.000000 0.000001 0.000000 0.049900 0.000000 -0.000000 -24.384479 -6.436669 6.123415 65.425979 -0.779628 -0.906260 -3.663620 1.212024 0.426197 0.000000 0.000000 -0.000001 -0.049900 -0.000000 -0.000000 -10.278636 -2.577747 -8.651484 19.862508 0.014061 7.929608 -10.433979 3.964366 0.597410 -0.000003 -0.000000 0.000000 
-0.002279 -0.032233 0.555997 0.984553 1.496305 1.368277 0.000000 0.000000 0.071600 0.213792 -0.049858 0.665731 0.428467 -0.149514 1.339547 0.428466 -0.149514 1.339547 0.000000 -0.000000 0.071600 0.543284 0.463818 -0.617481 -0.000000 0.000000 0.000000 0.024900 -0.000000 0.061300 4.667755 15.407952 -14.075659 -16.709424 52.191227 16.863211 19.508762 3.895919 -30.487550 0.000001 0.000000 0.000001 -0.024900 -0.000000 0.061300 3.817394 -16.810851 8.545160 -29.477519 -49.053971 -34.258033 15.654215 -10.687493 35.262726 -0.000001 -0.000000 0.000000 0.049900 0.000000 -0.000000 -28.152103 -5.984891 5.931397 58.125682 0.026582 1.193043 -5.873618 0.743927 0.418666 0.000002 -0.000000 -0.000000 -0.049900 0.000000 -0.000000 -5.512474 -3.021879 -9.266369 17.125700 -0.126638 8.791532 -8.945344 4.909132 0.741311 0.000002 -0.000000 -0.000000 
-0.002838 -0.064672 0.555502 0.886775 1.776410 0.263083 0.000000 0.000000 0.071600 0.323524 -0.011589 0.926050 0.646681 0.043672 1.900070 0.646682 0.043673 1.900070 0.000000 -0.000000 0.071600 0.591548 -0.519322 -0.851644 -0.000000 -0.000000 0.000000 0.024900 -0.000000 0.061300 4.642517 15.571592 -13.527340 -16.726080 52.458363 21.785399 20.057084 3.374027 -31.043326 0.000002 -0.000001 -0.000002 -0.024900 0.000000 0.061300 3.770551 -15.620115 8.934609 -30.100879 -49.259106 -30.168836 15.521646 -11.320669 40.067379 0.000001 0.000001 0.000004 0.049900 0.000000 0.000000 -30.415270 -5.515194 5.184159 48.191680 0.396647 3.665137 -7.509563 0.029795 0.333301 -0.000001 -0.000000 -0.000000 -0.049900 0.000000 -0.000000 -1.606523 -3.152593 -9.889795 16.605616 -0.542489 9.854675 -9.745661 5.333935 0.934651 0.000001 -0.000000 0.000000 
-0.002999 -0.098592 0.552182 0.709473 2.007933 -0.525428 0.000000 -0.000000 0.071600 0.377555 -0.018236 1.127983 0.753665 0.138220 2.335108 0.753666 0.138219 2.335108 0.000000 -0.000000 0.071600 1.529837 -1.204580 -0.994454 0.000000 0.000000 0.000000 0.024900 -0.000000 0.061300 4.505039 15.272472 -12.557141 -16.887566 53.692773 25.682268 20.866245 3.253350 -29.806607 -0.000000 -0.000000 -0.000000 -0.024900 -0.000000 0.061300 3.732734 -14.602017 9.360961 -29.110352 -49.727267 -23.981146 14.679057 -10.946170 42.149343 -0.000001 -0.000000 0.000003 0.049900 -0.000000 -0.000000 -31.881622 -5.135411 4.564692 37.446048 0.434090 4.981000 -7.622833 -1.193602 0.210232 0.000002 -0.000000 -0.000001 -0.049900 -0.000000 -0.000000 2.303164 -2.818488 -10.737699 16.805655 -1.254872 11.236835 -11.259518 5.890843 1.192527 0.000001 0.000000 0.000000 
-0.003002 -0.131562 0.546826 0.622905 2.051845 -1.111483 -0.000000 0.000000 0.071600 0.452474 0.022039 1.297605 0.901180 0.302834 2.713306 0.901180 0.302833 2.713306 0.000000 0.000000 0.071600 2.035411 -2.033706 -1.168561 -0.000000 -0.000000 -0.000000 0.024900 0.000000 0.061300 4.375192 14.639500 -12.142411 -18.444726 55.296699 30.132121 21.293813 2.825067 -27.754919 0.000002 0.000000 -0.000000 -0.024900 0.000000 0.061300 3.734536 -14.097751 9.839749 -25.851829 -50.382166 -15.592598 13.022707 -8.822179 42.555582 0.000000 -0.000001 -0.000002 0.049900 0.000000 0.000000 -33.168112 -4.706962 4.393026 27.011696 0.037921 4.485719 -5.094842 -2.031609 0.191369 -0.000000 -0.000000 0.000000 -0.049900 0.000000 0.000000 5.682327 -2.192138 -11.268424 17.787594 -1.896359 12.307833 -12.861482 6.293629 1.451412 0.000000 0.000000 0.000000 
-0.002552 -0.164163 0.540494 0.716192 1.989465 -1.748596 -0.000000 0.000000 0.071600 0.465149 0.104945 1.484920 0.922424 0.533466 3.141473 0.922422 0.533466 3.141472 -0.000000 0.000000 0.071600 2.506181 -3.068424 -1.420551 0.000000 0.000000 -0.000000 0.024900 0.000000 0.061300 4.346936 14.298549 -12.377911 -20.784062 56.277094 35.232472 21.415578 2.100755 -26.017796 -0.000000 0.000000 -0.000000 -0.024900 0.000000 0.061300 3.697329 -13.310880 10.190454 -21.922044 -51.542807 -7.035172 10.717822 -6.110475 40.914271 0.000000 -0.000001 -0.000002 0.049900 0.000000 -0.000000 -35.026631 -4.106546 3.838355 19.419397 -0.835489 3.549215 -3.318742 -1.163768 0.282935 -0.000002 -0.000000 0.000000 -0.049900 0.000000 -0.000000 8.035438 -1.282040 -11.857091 20.288783 -2.259426 13.353118 -13.447214 6.431648 1.634347 0.000000 0.000000 0.000000 
-0.001552 -0.197414 0.533921 0.858113 1.930805 -2.511405 -0.000000 0.000000 0.071600 0.450666 0.233626 1.697434 0.887443 0.785076 3.649157 0.887444 0.785076 3.649158 -0.000000 0.000000 0.071600 2.502933 -4.177450 -1.748172 0.000000 0.000000 0.000000 0.024900 0.000000 0.061300 4.277236 13.951440 -12.111296 -23.399494 56.778075 39.593930 21.444721 1.331230 -24.671724 -0.000000 -0.000000 0.000000 -0.024900 0.000000 0.061300 3.649272 -12.546863 10.431982 -18.021329 -52.581289 0.314650 8.666489 -3.462610 38.733753 -0.000002 -0.000000 -0.000001 0.049900 -0.000000 -0.000000 -38.303506 -3.809195 3.214015 18.522874 -1.654577 2.489681 -5.115421 0.446414 0.344187 0.000000 -0.000000 0.000000 -0.049900 0.000000 0.000000 10.402437 -0.429090 -12.364369 22.492696 -2.202723 14.153132 -12.332835 6.288203 1.713630 0.000002 -0.000000 -0.000000 
0.000067 -0.233103 0.526511 0.866782 1.892801 -3.250640 0.000000 -0.000000 0.071600 0.423197 0.365468 1.901945 0.825768 0.995857 4.149393 0.825767 0.995856 4.149390 -0.000000 0.000000 0.071600 1.705047 -4.904991 -2.039327 0.000000 0.000000 0.000000 0.024900 0.000000 0.061300 4.270910 14.086890 -11.755610 -24.820288 56.046442 43.506949 21.831216 0.514194 -26.924138 0.000001 -0.000000 -0.000000 -0.024900 0.000000 0.061300 3.571371 -11.386249 10.816924 -15.256426 -53.703633 3.919797 7.366316 -1.238267 38.762430 -0.000002 -0.000001 -0.000002 0.049900 0.000000 0.000000 -40.276649 -3.970081 3.682932 21.469229 -1.681427 0.395283 -9.231258 0.928551 0.431765 0.000002 -0.000000 0.000000 -0.049900 0.000000 0.000000 12.855894 0.359303 -12.869325 24.997541 -1.599485 14.786429 -9.870096 6.031390 1.656466 -0.000003 -0.000000 0.000000 
0.003018 -0.272281 0.518435 0.823103 1.758011 -3.790009 0.000000 -0.000000 0.071600 0.356712 0.474671 2.050321 0.686332 1.176438 4.520469 0.686333 1.176439 4.520469 -0.000000 -0.000000 0.071600 0.344803 -4.939335 -2.151426 -0.000000 -0.000000 -0.000000 0.024900 -0.000000 0.061300 4.413030 14.864819 -12.117698 -24.874516 54.458365 46.726820 22.185513 -0.285210 -31.875321 0.000000 -0.000000 -0.000000 -0.024900 -0.000000 0.061300 3.488309 -10.656074 10.545431 -13.068886 -54.670183 4.506841 7.235684 0.486207 42.222150 -0.000002 0.000001 -0.000001 0.049900 -0.000000 -0.000000 -39.271166 -3.941953 4.900907 23.866472 -1.186833 -1.948987 -9.857114 -1.131464 0.192670 0.000001 0.000000 0.000000 -0.049900 0.000000 -0.000000 14.960729 1.372470 -13.225916 28.648788 -0.659108 14.971449 -5.629783 5.410927 1.465023 -0.000001 0.000000 -0.000000 
0.006152 -0.312351 0.514163 1.011498 1.376308 -3.992747 -0.000000 0.000000 0.071600 0.134608 0.589888 2.053857 0.234769 1.385381 4.664603 0.234770 1.385381 4.664603 0.000000 0.000000 0.071600 0.408376 -4.583003 -2.022974 -0.000000 0.000000 0.000000 0.024900 0.000000 0.061300 4.616390 15.578345 -13.198378 -25.131095 53.638131 48.897335 21.534550 -0.883393 -34.477579 -0.000000 0.000000 0.000000 -0.024900 0.000000 0.061300 3.450193 -10.697244 9.842538 -11.042592 -55.894074 3.074444 7.746096 2.071638 46.455388 -0.000002 0.000002 0.000003 0.049900 0.000000 -0.000000 -38.661958 -3.711798 5.442264 28.703371 -0.818920 -5.183413 -5.644762 -1.389476 0.125878 -0.000002 0.000000 -0.000000 -0.049900 0.000000 -0.000000 16.098225 2.113970 -13.377499 31.735132 0.726977 13.704105 4.308937 3.540886 1.172770 -0.000002 -0.000000 -0.000000 
